<svg version="1.1" id="Layer_1" xmlns="http://www.w3.org/2000/svg" xmlns:xlink="http://www.w3.org/1999/xlink" x="0px" y="0px"
	 width="100%" viewBox="0 0 790 216" enable-background="new 0 0 790 216" xml:space="preserve">
<path fill="#F2D157" opacity="1.000000" stroke="none" 
	d="
M105.759323,180.873230 
	C94.624115,184.830734 83.513588,186.364273 72.102982,186.209534 
	C61.947937,186.071838 51.789185,186.233627 41.632767,186.163223 
	C33.427219,186.106354 29.533934,182.501602 29.519276,174.462860 
	C29.440340,131.171265 29.435867,87.879364 29.518517,44.587780 
	C29.536085,35.384731 33.153915,32.004173 42.357510,32.004513 
	C54.510174,32.004959 66.671242,31.826696 78.813965,32.202003 
	C119.781006,33.468201 149.616348,63.045944 151.549652,103.887299 
	C152.680435,127.775345 146.511703,149.171249 128.825470,165.816513 
	C122.329636,171.930023 113.752159,175.831726 105.759323,180.873230 
M93.383545,52.989273 
	C79.277390,48.364105 64.795990,50.847980 50.346420,50.114754 
	C50.346420,89.738724 50.346420,128.753403 50.346420,167.862625 
	C59.991344,167.862625 69.312691,168.190979 78.603798,167.800323 
	C105.187668,166.682556 125.368744,149.191162 130.586609,123.205269 
	C136.583588,93.339363 123.692719,62.857510 93.383545,52.989273 
z"/>
<path fill="#F1D157" opacity="1.000000" stroke="none" 
	d="
M615.425293,167.757568 
	C622.348999,164.991241 628.946594,162.506851 635.291748,159.491287 
	C639.948486,157.278107 644.995178,157.911270 647.698730,161.814270 
	C650.482117,165.832321 649.937073,171.350540 646.194153,174.427032 
	C643.642883,176.523956 640.952271,178.532227 638.079224,180.143784 
	C613.316589,194.033615 582.680481,186.599579 565.685242,162.672043 
	C550.358704,141.093872 554.880371,108.885185 575.796692,90.902611 
	C592.345459,76.675026 611.345276,73.297165 631.193848,81.338844 
	C652.400391,89.930710 664.810852,106.199310 666.123047,129.738647 
	C666.585999,138.043533 663.029785,141.740219 654.611633,141.812607 
	C640.781738,141.931534 626.949646,141.904709 613.119263,141.820343 
	C606.365479,141.779144 602.100098,137.977936 602.008667,132.262222 
	C601.920105,126.725822 606.313293,122.903893 613.177734,122.843719 
	C623.838745,122.750267 634.501221,122.819023 645.184509,122.819023 
	C642.768433,107.403915 626.196106,95.387161 609.134644,96.555359 
	C582.636963,98.369652 566.904724,127.468590 580.541626,150.250610 
	C588.146118,162.954758 599.928894,168.977127 615.425293,167.757568 
z"/>
<path fill="#F1D157" opacity="1.000000" stroke="none" 
	d="
M193.227386,138.305573 
	C197.629807,160.045258 217.868362,172.051941 237.434113,166.740036 
	C243.040573,165.217926 248.063599,161.595627 253.411713,159.057617 
	C257.715424,157.015259 262.381317,158.317017 264.804718,162.044662 
	C267.450897,166.115005 267.020325,171.129883 263.423584,174.225143 
	C260.922638,176.377396 258.259125,178.476074 255.354691,180.001846 
	C237.817169,189.214676 219.707626,190.065231 202.426254,180.406967 
	C183.497696,169.828094 173.285934,153.141403 173.962524,130.936264 
	C175.201584,90.270569 216.919296,64.905266 253.314163,83.463181 
	C272.083191,93.033600 282.878326,109.281380 283.156586,131.211548 
	C283.234558,137.358078 280.110596,141.406998 274.152466,141.557068 
	C258.842468,141.942719 243.515167,141.966888 228.201721,141.714661 
	C222.743179,141.624725 219.012268,137.202255 219.044388,132.347458 
	C219.079941,126.974358 223.039505,122.985306 229.103027,122.883713 
	C240.089432,122.699638 251.081131,122.831558 262.778137,122.831558 
	C260.542206,114.422386 256.178467,107.888908 249.330231,103.207207 
	C237.706985,95.261093 225.180038,93.910088 212.611710,100.367554 
	C198.793274,107.467300 192.121384,119.161034 193.009048,134.881424 
	C193.065353,135.878311 193.123734,136.875061 193.227386,138.305573 
z"/>
<path fill="#F0D056" opacity="1.000000" stroke="none" 
	d="
M690.501099,181.565063 
	C685.691345,186.528809 680.510681,187.467392 676.688721,184.295227 
	C672.803528,181.070572 672.819031,175.336884 677.061707,169.962967 
	C686.947815,157.440918 696.962524,145.020462 707.110413,132.327133 
	C697.556152,121.040665 687.995239,109.787582 678.492310,98.485733 
	C676.577332,96.208252 674.645081,93.886009 673.139832,91.336937 
	C670.697693,87.201294 671.480225,82.498199 674.640625,80.088097 
	C678.347839,77.261009 683.635681,77.334534 686.847595,80.933472 
	C693.594360,88.492928 700.015320,96.343155 706.570862,104.073296 
	C710.947693,109.234352 715.326172,114.394119 720.145325,120.074844 
	C725.235962,113.426338 730.056702,107.232185 734.763733,100.952866 
	C739.109619,95.155441 743.288269,89.232780 747.624451,83.427933 
	C751.795105,77.844757 756.970642,76.681908 761.760742,80.112244 
	C765.648499,82.896393 766.101379,89.490738 762.353210,94.486366 
	C754.601440,104.818024 746.731750,115.064095 738.752563,125.221268 
	C732.431213,133.268188 732.295593,133.211807 738.866943,141.134583 
	C746.715820,150.597687 754.645508,159.993820 762.486694,169.463242 
	C763.744995,170.982834 765.018066,172.609650 765.772949,174.402237 
	C767.445251,178.373764 765.930908,182.776642 762.510681,184.828659 
	C758.688721,187.121704 753.710815,186.539520 750.766418,183.118607 
	C744.045349,175.309692 737.461426,167.382675 730.829651,159.496994 
	C727.087524,155.047409 723.361023,150.584686 719.200684,145.618347 
	C709.638184,157.605820 700.190186,169.449692 690.501099,181.565063 
z"/>
<path fill="#F1D156" opacity="1.000000" stroke="none" 
	d="
M490.025574,183.039825 
	C483.626373,170.424179 477.353790,158.142120 471.387482,145.713043 
	C463.052032,128.348511 454.979919,110.857765 446.722778,93.455353 
	C443.615631,86.906845 444.765320,82.444168 450.509338,79.770538 
	C455.902283,77.260330 460.472900,79.450249 463.447632,85.822388 
	C469.000275,97.716789 474.662109,109.560310 480.198975,121.462006 
	C485.651978,133.183502 491.006378,144.950867 496.756714,157.465683 
	C501.153107,148.019287 505.278076,139.203140 509.362946,130.368423 
	C516.464539,115.009239 523.471130,99.605637 530.666931,84.290840 
	C533.143738,79.019394 538.588440,77.227089 543.591675,79.602753 
	C548.422791,81.896690 550.155396,86.974457 547.648071,92.246521 
	C533.755981,121.457344 519.840942,150.657410 505.843811,179.817978 
	C502.570740,186.636856 496.462708,187.886734 490.025574,183.039825 
z"/>
<path fill="#F2D257" opacity="1.000000" stroke="none" 
	d="
M304.992126,167.961060 
	C305.311646,153.501984 304.721649,139.443283 306.142761,125.590889 
	C308.976288,97.970993 335.797272,74.914383 363.465057,75.171593 
	C369.648041,75.229065 373.853912,78.705162 374.164337,84.014404 
	C374.503265,89.810654 371.475739,93.345940 364.870911,94.047623 
	C355.829742,95.008133 347.347839,97.059982 339.963501,102.843231 
	C328.914551,111.496468 324.111725,122.949905 324.025452,136.652328 
	C323.944702,149.474579 324.034698,162.297821 323.996277,175.120468 
	C323.977417,181.417725 320.216003,185.888901 314.926514,186.074631 
	C309.139130,186.277847 305.242249,182.134171 305.008636,175.448547 
	C304.927277,173.119934 304.993378,170.786163 304.992126,167.961060 
z"/>
<path fill="#F2D257" opacity="1.000000" stroke="none" 
	d="
M402.820831,128.999908 
	C402.823151,115.175018 402.707642,101.848663 402.872223,88.525780 
	C402.969971,80.612167 409.859283,76.055725 416.993286,79.081619 
	C421.812500,81.125687 422.863098,85.398491 422.857239,90.188248 
	C422.826080,115.672089 422.842804,141.155991 422.842682,166.639877 
	C422.842682,169.637985 422.957031,172.641571 422.815887,175.633057 
	C422.503632,182.250229 418.665039,186.148010 412.668762,186.112045 
	C406.644897,186.075912 402.901642,182.194656 402.857819,175.470581 
	C402.757935,160.147598 402.822876,144.823547 402.820831,128.999908 
z"/>
<path fill="#EFCF56" opacity="1.000000" stroke="none" 
	d="
M404.405212,57.677082 
	C399.615906,53.191616 398.670563,48.061954 400.840515,42.464260 
	C402.738556,37.567928 407.790436,34.494476 413.017609,34.705708 
	C418.765137,34.937954 422.539368,38.127579 424.839844,43.152740 
	C426.944000,47.749035 425.439545,53.746593 421.532104,57.187840 
	C416.525665,61.597027 411.068817,61.834785 404.405212,57.677082 
z"/>
</svg>