<svg version="1.1" id="Layer_1" xmlns="http://www.w3.org/2000/svg" xmlns:xlink="http://www.w3.org/1999/xlink" x="0px" y="0px"
	 width="100%" viewBox="0 0 1458 372" enable-background="new 0 0 1458 372" xml:space="preserve">
<path fill="#E9CA89" opacity="1.000000" stroke="none" 
	d="
M1375.000000,373.000000 
	C916.666687,373.000000 458.833374,373.000000 1.000062,373.000000 
	C1.000041,249.000031 1.000041,125.000069 1.000021,1.000078 
	C486.999908,1.000052 972.999817,1.000052 1458.999756,1.000026 
	C1458.999878,124.999931 1458.999878,248.999863 1459.000000,372.999878 
	C1431.166626,373.000000 1403.333374,373.000000 1375.000000,373.000000 
M184.529236,210.499786 
	C184.529236,239.389221 184.529236,268.278656 184.529236,297.525146 
	C192.987442,297.525146 200.473877,297.559692 207.959885,297.518341 
	C226.597565,297.415344 245.344345,298.504120 263.845978,296.855072 
	C289.043457,294.609253 310.242645,282.771240 326.289734,263.197784 
	C346.721802,238.275650 351.010803,209.180389 344.334778,178.505630 
	C335.433136,137.604553 296.561829,107.054482 254.757935,107.004776 
	C233.266815,106.979225 211.775620,107.000313 190.284470,107.000320 
	C188.502335,107.000320 186.720200,107.000320 185.030533,107.000320 
	C184.793854,108.085724 184.598663,108.563972 184.598190,109.042412 
	C184.565155,142.528183 184.547653,176.013977 184.529236,210.499786 
M370.114563,199.727097 
	C353.653381,230.054337 360.888000,271.089203 392.948242,290.555969 
	C420.954193,307.561066 450.477570,307.914307 479.206024,291.974884 
	C510.468506,274.629517 522.225647,234.754166 506.113678,202.892273 
	C494.538971,180.003052 475.223999,167.761292 450.165466,164.765518 
	C417.133698,160.816513 389.252106,169.582687 370.114563,199.727097 
M922.893372,284.590271 
	C928.656006,288.414795 933.987549,293.285553 940.260925,295.870667 
	C960.270630,304.116150 981.172302,303.999634 1002.140076,300.248169 
	C1012.728210,298.353760 1022.542419,294.508789 1030.788574,287.246094 
	C1042.549805,276.887482 1045.530273,263.252502 1045.529419,248.454681 
	C1045.527954,223.625748 1045.534302,198.796814 1045.517944,173.967880 
	C1045.516724,172.180771 1045.355713,170.393738 1045.259033,168.398819 
	C1030.221802,168.398819 1015.635254,168.398819 1000.470947,168.398819 
	C1000.470947,170.418533 1000.470825,172.208344 1000.470825,173.998169 
	C1000.470825,191.328430 1000.505127,208.658798 1000.454407,225.988907 
	C1000.433472,233.147629 1001.054565,240.451630 999.822815,247.413422 
	C998.989929,252.120667 996.459656,257.601288 992.882507,260.529633 
	C985.025696,266.961304 975.520813,266.620972 966.484192,262.558563 
	C958.253296,258.858368 956.196411,251.384628 956.181030,243.134598 
	C956.137695,219.972122 956.171875,196.809509 956.153931,173.646973 
	C956.152588,171.903809 955.980713,170.160782 955.895569,168.558289 
	C940.709229,168.558289 926.140991,168.558289 911.163940,168.558289 
	C911.163940,170.755661 911.163940,172.561188 911.163940,174.366730 
	C911.163940,199.862213 911.165833,225.357681 911.163208,250.853165 
	C911.161926,263.194855 914.076355,274.546539 922.893372,284.590271 
M1068.978271,271.565765 
	C1066.324219,276.890289 1063.670044,282.214813 1060.894287,287.783478 
	C1083.429932,300.681976 1106.954712,306.556671 1132.353394,299.876465 
	C1149.920410,295.256134 1164.302490,286.058716 1169.282959,267.229218 
	C1174.744263,246.581253 1169.093750,229.150131 1149.799683,220.459503 
	C1145.584717,218.560989 1141.064331,217.312729 1136.633301,215.929459 
	C1131.257935,214.251389 1125.588257,213.270630 1120.522705,210.948441 
	C1117.982544,209.783951 1114.725708,206.101593 1114.984375,203.939621 
	C1115.312256,201.198654 1118.426392,197.801590 1121.175903,196.595718 
	C1124.447021,195.161102 1128.742554,194.987885 1132.351807,195.630066 
	C1139.113892,196.833282 1145.701538,199.016998 1152.579834,200.851013 
	C1157.410889,191.395248 1162.233154,181.956711 1167.478394,171.690430 
	C1161.714722,169.881882 1156.487305,167.806839 1151.065430,166.617432 
	C1130.437134,162.092194 1110.186035,161.839249 1091.057617,172.731384 
	C1071.863525,183.660812 1064.256348,211.200058 1075.525879,229.676239 
	C1080.551147,237.915054 1088.824341,241.340210 1097.553101,243.870651 
	C1104.873169,245.992783 1112.336304,247.647003 1119.585693,249.976761 
	C1123.333618,251.181259 1126.249878,253.877213 1126.292847,258.338165 
	C1126.333374,262.547546 1123.803467,265.223358 1120.174683,266.596466 
	C1117.448364,267.628113 1114.351929,268.673767 1111.572021,268.361603 
	C1106.008057,267.736816 1100.331665,266.777588 1095.101318,264.864258 
	C1088.829590,262.570007 1082.974976,259.135681 1076.757202,256.106110 
	C1074.218018,261.116547 1071.744385,265.997437 1068.978271,271.565765 
M695.498901,129.470932 
	C687.060303,129.470932 678.621704,129.470932 669.616699,129.470932 
	C669.616699,142.741226 669.616699,155.311783 669.616699,168.342804 
	C664.768372,168.342804 660.502014,168.342804 656.124878,168.342804 
	C656.124878,181.737610 656.124878,194.646805 656.124878,208.170258 
	C660.784241,208.170258 665.170410,208.170258 669.988831,208.170258 
	C669.988831,223.592682 669.722778,238.407028 670.050049,253.208237 
	C670.562927,276.400940 681.014893,290.553314 702.895325,297.869232 
	C713.963806,301.570068 725.421509,302.857452 737.230835,302.287170 
	C737.230835,289.661285 737.230835,277.572754 737.230835,266.881561 
	C731.434753,264.247894 725.863220,262.722443 721.544250,259.511841 
	C715.461853,254.990387 714.789124,247.748810 714.804016,240.526550 
	C714.875854,205.700150 714.836243,170.873535 714.836182,136.046997 
	C714.836182,134.086761 714.836182,132.126526 714.836182,129.471298 
	C708.404602,129.471298 702.451294,129.471298 695.498901,129.470932 
M1244.999878,218.500000 
	C1244.999878,188.944931 1244.999878,159.389847 1244.999878,129.832092 
	C1229.648071,129.832092 1215.065796,129.832092 1199.931274,129.832092 
	C1199.931274,142.684097 1199.931274,155.247177 1199.931274,168.340027 
	C1194.975464,168.340027 1190.569214,168.340027 1186.150879,168.340027 
	C1186.150879,181.793030 1186.150879,194.696442 1186.150879,208.107330 
	C1190.856567,208.107330 1195.266113,208.107330 1200.000122,208.107330 
	C1200.000122,223.238449 1199.975830,237.860367 1200.008789,252.482132 
	C1200.030151,261.953613 1202.077393,270.847015 1207.034302,279.091736 
	C1217.822021,297.034393 1246.501953,303.963074 1267.432251,301.729889 
	C1267.432251,290.359558 1267.519897,278.919189 1267.262939,267.486572 
	C1267.242676,266.590546 1264.904907,265.184631 1263.498657,264.970398 
	C1251.884033,263.201080 1245.101074,255.660416 1245.011841,243.974304 
	C1244.949707,235.816650 1244.999878,227.658127 1244.999878,218.500000 
M527.165405,202.332428 
	C527.165405,204.101624 527.165405,205.870819 527.165405,208.111404 
	C532.246338,208.111404 536.664673,208.111404 541.528809,208.111404 
	C541.528809,210.389572 541.528809,212.192780 541.528809,213.995972 
	C541.528931,226.489883 541.456238,238.984375 541.552002,251.477554 
	C541.630859,261.769165 543.346741,271.649048 549.406250,280.358368 
	C557.204651,291.566986 568.611389,296.866119 581.371826,299.800293 
	C590.390625,301.874115 599.535583,302.975098 608.785156,302.190582 
	C608.785156,289.535614 608.785156,277.469879 608.785156,265.344574 
	C606.297607,265.032257 604.112305,264.998444 602.059570,264.459686 
	C591.742249,261.751678 586.496887,254.175980 586.484375,241.903549 
	C586.448364,206.587448 586.471252,171.271271 586.471008,135.955124 
	C586.471008,134.013977 586.471069,132.072830 586.471069,129.860626 
	C571.247498,129.860626 556.699829,129.860626 541.462646,129.860626 
	C541.462646,142.718811 541.462646,155.265228 541.462646,168.380219 
	C536.374451,168.380219 531.969666,168.380219 527.165405,168.380219 
	C527.165405,179.768906 527.165405,190.569839 527.165405,202.332428 
M790.930603,201.500000 
	C790.930603,233.535736 790.930603,265.571472 790.930603,297.564148 
	C806.361816,297.564148 820.937378,297.564148 835.619019,297.564148 
	C835.619019,254.410919 835.619019,211.560471 835.619019,168.662781 
	C820.603699,168.662781 805.909119,168.662781 790.930603,168.662781 
	C790.930603,179.543900 790.930603,190.021957 790.930603,201.500000 
M723.672241,196.906326 
	C726.095093,213.929779 741.165955,223.740234 756.558228,218.313644 
	C768.860046,213.976624 775.754028,200.718704 772.486450,187.681824 
	C769.321411,175.053391 757.576965,166.731537 745.385803,168.478821 
	C731.752441,170.432785 723.054932,181.425491 723.672241,196.906326 
M1253.564209,195.248596 
	C1253.641602,195.908936 1253.713989,196.569916 1253.797241,197.229523 
	C1255.458862,210.379303 1266.203003,220.154648 1278.662842,219.854279 
	C1291.493164,219.544983 1302.227539,209.424835 1303.155884,196.762939 
	C1304.194946,182.589798 1295.662354,171.138290 1282.557617,168.668427 
	C1268.179199,165.958527 1253.322754,177.573151 1253.564209,195.248596 
M618.732483,219.812820 
	C621.199768,219.533600 623.724915,219.499512 626.124390,218.933105 
	C637.012634,216.362823 644.967163,205.869812 644.963196,194.305008 
	C644.959167,182.565475 637.237732,171.971832 626.631714,169.154678 
	C615.332886,166.153519 603.800720,171.080124 598.266663,181.440460 
	C589.413330,198.014755 599.815002,218.070389 618.732483,219.812820 
M854.991943,173.414993 
	C846.489319,180.687622 843.243774,189.804337 845.999817,200.678589 
	C848.392639,210.119720 854.407532,216.489044 863.905640,218.970505 
	C875.195129,221.919998 886.583862,216.556198 892.041199,206.127731 
	C897.487488,195.720367 895.114441,182.508423 886.377930,174.596588 
	C877.728333,166.763458 866.062134,166.156250 854.991943,173.414993 
z"/>
<path fill="#313238" opacity="1.000000" stroke="none" 
	d="
M184.529053,209.999786 
	C184.547653,176.013977 184.565155,142.528183 184.598190,109.042412 
	C184.598663,108.563972 184.793854,108.085724 185.030533,107.000320 
	C186.720200,107.000320 188.502335,107.000320 190.284470,107.000320 
	C211.775620,107.000313 233.266815,106.979225 254.757935,107.004776 
	C296.561829,107.054482 335.433136,137.604553 344.334778,178.505630 
	C351.010803,209.180389 346.721802,238.275650 326.289734,263.197784 
	C310.242645,282.771240 289.043457,294.609253 263.845978,296.855072 
	C245.344345,298.504120 226.597565,297.415344 207.959885,297.518341 
	C200.473877,297.559692 192.987442,297.525146 184.529236,297.525146 
	C184.529236,268.278656 184.529236,239.389221 184.529053,209.999786 
M256.945404,150.491333 
	C248.900650,149.894760 240.855881,149.298187 232.548325,148.682129 
	C232.548325,184.913361 232.548325,220.048569 232.548325,255.537292 
	C236.573669,255.537292 240.217667,255.600739 243.858902,255.527283 
	C274.135437,254.916519 293.435577,237.665527 296.392914,208.602325 
	C299.347290,179.568069 284.163635,156.811615 256.945404,150.491333 
z"/>
<path fill="#313238" opacity="1.000000" stroke="none" 
	d="
M370.286865,199.402069 
	C389.252106,169.582687 417.133698,160.816513 450.165466,164.765518 
	C475.223999,167.761292 494.538971,180.003052 506.113678,202.892273 
	C522.225647,234.754166 510.468506,274.629517 479.206024,291.974884 
	C450.477570,307.914307 420.954193,307.561066 392.948242,290.555969 
	C360.888000,271.089203 353.653381,230.054337 370.286865,199.402069 
M458.773468,253.240738 
	C460.962280,248.833603 463.989319,244.642792 465.192352,239.981232 
	C469.963593,221.493851 454.686981,202.203491 436.510986,203.209625 
	C423.223511,203.945160 412.104919,213.596909 409.235229,226.886841 
	C406.408722,239.976807 412.794189,253.793625 424.670715,260.285980 
	C435.288116,266.090057 448.497528,263.519226 458.773468,253.240738 
z"/>
<path fill="#323338" opacity="1.000000" stroke="none" 
	d="
M922.650513,284.328003 
	C914.076355,274.546539 911.161926,263.194855 911.163208,250.853165 
	C911.165833,225.357681 911.163940,199.862213 911.163940,174.366730 
	C911.163940,172.561188 911.163940,170.755661 911.163940,168.558289 
	C926.140991,168.558289 940.709229,168.558289 955.895569,168.558289 
	C955.980713,170.160782 956.152588,171.903809 956.153931,173.646973 
	C956.171875,196.809509 956.137695,219.972122 956.181030,243.134598 
	C956.196411,251.384628 958.253296,258.858368 966.484192,262.558563 
	C975.520813,266.620972 985.025696,266.961304 992.882507,260.529633 
	C996.459656,257.601288 998.989929,252.120667 999.822815,247.413422 
	C1001.054565,240.451630 1000.433472,233.147629 1000.454407,225.988907 
	C1000.505127,208.658798 1000.470825,191.328430 1000.470825,173.998169 
	C1000.470825,172.208344 1000.470947,170.418533 1000.470947,168.398819 
	C1015.635254,168.398819 1030.221802,168.398819 1045.259033,168.398819 
	C1045.355713,170.393738 1045.516724,172.180771 1045.517944,173.967880 
	C1045.534302,198.796814 1045.527954,223.625748 1045.529419,248.454681 
	C1045.530273,263.252502 1042.549805,276.887482 1030.788574,287.246094 
	C1022.542419,294.508789 1012.728210,298.353760 1002.140076,300.248169 
	C981.172302,303.999634 960.270630,304.116150 940.260925,295.870667 
	C933.987549,293.285553 928.656006,288.414795 922.650513,284.328003 
z"/>
<path fill="#323238" opacity="1.000000" stroke="none" 
	d="
M1069.124512,271.222046 
	C1071.744385,265.997437 1074.218018,261.116547 1076.757202,256.106110 
	C1082.974976,259.135681 1088.829590,262.570007 1095.101318,264.864258 
	C1100.331665,266.777588 1106.008057,267.736816 1111.572021,268.361603 
	C1114.351929,268.673767 1117.448364,267.628113 1120.174683,266.596466 
	C1123.803467,265.223358 1126.333374,262.547546 1126.292847,258.338165 
	C1126.249878,253.877213 1123.333618,251.181259 1119.585693,249.976761 
	C1112.336304,247.647003 1104.873169,245.992783 1097.553101,243.870651 
	C1088.824341,241.340210 1080.551147,237.915054 1075.525879,229.676239 
	C1064.256348,211.200058 1071.863525,183.660812 1091.057617,172.731384 
	C1110.186035,161.839249 1130.437134,162.092194 1151.065430,166.617432 
	C1156.487305,167.806839 1161.714722,169.881882 1167.478394,171.690430 
	C1162.233154,181.956711 1157.410889,191.395248 1152.579834,200.851013 
	C1145.701538,199.016998 1139.113892,196.833282 1132.351807,195.630066 
	C1128.742554,194.987885 1124.447021,195.161102 1121.175903,196.595718 
	C1118.426392,197.801590 1115.312256,201.198654 1114.984375,203.939621 
	C1114.725708,206.101593 1117.982544,209.783951 1120.522705,210.948441 
	C1125.588257,213.270630 1131.257935,214.251389 1136.633301,215.929459 
	C1141.064331,217.312729 1145.584717,218.560989 1149.799683,220.459503 
	C1169.093750,229.150131 1174.744263,246.581253 1169.282959,267.229218 
	C1164.302490,286.058716 1149.920410,295.256134 1132.353394,299.876465 
	C1106.954712,306.556671 1083.429932,300.681976 1060.894287,287.783478 
	C1063.670044,282.214813 1066.324219,276.890289 1069.124512,271.222046 
z"/>
<path fill="#323338" opacity="1.000000" stroke="none" 
	d="
M695.998413,129.471115 
	C702.451294,129.471298 708.404602,129.471298 714.836182,129.471298 
	C714.836182,132.126526 714.836182,134.086761 714.836182,136.046997 
	C714.836243,170.873535 714.875854,205.700150 714.804016,240.526550 
	C714.789124,247.748810 715.461853,254.990387 721.544250,259.511841 
	C725.863220,262.722443 731.434753,264.247894 737.230835,266.881561 
	C737.230835,277.572754 737.230835,289.661285 737.230835,302.287170 
	C725.421509,302.857452 713.963806,301.570068 702.895325,297.869232 
	C681.014893,290.553314 670.562927,276.400940 670.050049,253.208237 
	C669.722778,238.407028 669.988831,223.592682 669.988831,208.170258 
	C665.170410,208.170258 660.784241,208.170258 656.124878,208.170258 
	C656.124878,194.646805 656.124878,181.737610 656.124878,168.342804 
	C660.502014,168.342804 664.768372,168.342804 669.616699,168.342804 
	C669.616699,155.311783 669.616699,142.741226 669.616699,129.470932 
	C678.621704,129.470932 687.060303,129.470932 695.998413,129.471115 
z"/>
<path fill="#313238" opacity="1.000000" stroke="none" 
	d="
M1244.999878,219.000000 
	C1244.999878,227.658127 1244.949707,235.816650 1245.011841,243.974304 
	C1245.101074,255.660416 1251.884033,263.201080 1263.498657,264.970398 
	C1264.904907,265.184631 1267.242676,266.590546 1267.262939,267.486572 
	C1267.519897,278.919189 1267.432251,290.359558 1267.432251,301.729889 
	C1246.501953,303.963074 1217.822021,297.034393 1207.034302,279.091736 
	C1202.077393,270.847015 1200.030151,261.953613 1200.008789,252.482132 
	C1199.975830,237.860367 1200.000122,223.238449 1200.000122,208.107330 
	C1195.266113,208.107330 1190.856567,208.107330 1186.150879,208.107330 
	C1186.150879,194.696442 1186.150879,181.793030 1186.150879,168.340027 
	C1190.569214,168.340027 1194.975464,168.340027 1199.931274,168.340027 
	C1199.931274,155.247177 1199.931274,142.684097 1199.931274,129.832092 
	C1215.065796,129.832092 1229.648071,129.832092 1244.999878,129.832092 
	C1244.999878,159.389847 1244.999878,188.944931 1244.999878,219.000000 
z"/>
<path fill="#313238" opacity="1.000000" stroke="none" 
	d="
M527.165405,201.851608 
	C527.165405,190.569839 527.165405,179.768906 527.165405,168.380219 
	C531.969666,168.380219 536.374451,168.380219 541.462646,168.380219 
	C541.462646,155.265228 541.462646,142.718811 541.462646,129.860626 
	C556.699829,129.860626 571.247498,129.860626 586.471069,129.860626 
	C586.471069,132.072830 586.471008,134.013977 586.471008,135.955124 
	C586.471252,171.271271 586.448364,206.587448 586.484375,241.903549 
	C586.496887,254.175980 591.742249,261.751678 602.059570,264.459686 
	C604.112305,264.998444 606.297607,265.032257 608.785156,265.344574 
	C608.785156,277.469879 608.785156,289.535614 608.785156,302.190582 
	C599.535583,302.975098 590.390625,301.874115 581.371826,299.800293 
	C568.611389,296.866119 557.204651,291.566986 549.406250,280.358368 
	C543.346741,271.649048 541.630859,261.769165 541.552002,251.477554 
	C541.456238,238.984375 541.528931,226.489883 541.528809,213.995972 
	C541.528809,212.192780 541.528809,210.389572 541.528809,208.111404 
	C536.664673,208.111404 532.246338,208.111404 527.165405,208.111404 
	C527.165405,205.870819 527.165405,204.101624 527.165405,201.851608 
z"/>
<path fill="#323339" opacity="1.000000" stroke="none" 
	d="
M790.930603,201.000000 
	C790.930603,190.021957 790.930603,179.543900 790.930603,168.662781 
	C805.909119,168.662781 820.603699,168.662781 835.619019,168.662781 
	C835.619019,211.560471 835.619019,254.410919 835.619019,297.564148 
	C820.937378,297.564148 806.361816,297.564148 790.930603,297.564148 
	C790.930603,265.571472 790.930603,233.535736 790.930603,201.000000 
z"/>
<path fill="#333439" opacity="1.000000" stroke="none" 
	d="
M723.610840,196.491943 
	C723.054932,181.425491 731.752441,170.432785 745.385803,168.478821 
	C757.576965,166.731537 769.321411,175.053391 772.486450,187.681824 
	C775.754028,200.718704 768.860046,213.976624 756.558228,218.313644 
	C741.165955,223.740234 726.095093,213.929779 723.610840,196.491943 
z"/>
<path fill="#333439" opacity="1.000000" stroke="none" 
	d="
M1253.533936,194.838318 
	C1253.322754,177.573151 1268.179199,165.958527 1282.557617,168.668427 
	C1295.662354,171.138290 1304.194946,182.589798 1303.155884,196.762939 
	C1302.227539,209.424835 1291.493164,219.544983 1278.662842,219.854279 
	C1266.203003,220.154648 1255.458862,210.379303 1253.797241,197.229523 
	C1253.713989,196.569916 1253.641602,195.908936 1253.533936,194.838318 
z"/>
<path fill="#333439" opacity="1.000000" stroke="none" 
	d="
M618.308472,219.773804 
	C599.815002,218.070389 589.413330,198.014755 598.266663,181.440460 
	C603.800720,171.080124 615.332886,166.153519 626.631714,169.154678 
	C637.237732,171.971832 644.959167,182.565475 644.963196,194.305008 
	C644.967163,205.869812 637.012634,216.362823 626.124390,218.933105 
	C623.724915,219.499512 621.199768,219.533600 618.308472,219.773804 
z"/>
<path fill="#333439" opacity="1.000000" stroke="none" 
	d="
M855.286987,173.204376 
	C866.062134,166.156250 877.728333,166.763458 886.377930,174.596588 
	C895.114441,182.508423 897.487488,195.720367 892.041199,206.127731 
	C886.583862,216.556198 875.195129,221.919998 863.905640,218.970505 
	C854.407532,216.489044 848.392639,210.119720 845.999817,200.678589 
	C843.243774,189.804337 846.489319,180.687622 855.286987,173.204376 
z"/>
<path fill="#E7C888" opacity="1.000000" stroke="none" 
	d="
M257.354919,150.599731 
	C284.163635,156.811615 299.347290,179.568069 296.392914,208.602325 
	C293.435577,237.665527 274.135437,254.916519 243.858902,255.527283 
	C240.217667,255.600739 236.573669,255.537292 232.548325,255.537292 
	C232.548325,220.048569 232.548325,184.913361 232.548325,148.682129 
	C240.855881,149.298187 248.900650,149.894760 257.354919,150.599731 
z"/>
<path fill="#E7C888" opacity="1.000000" stroke="none" 
	d="
M458.522339,253.493713 
	C448.497528,263.519226 435.288116,266.090057 424.670715,260.285980 
	C412.794189,253.793625 406.408722,239.976807 409.235229,226.886841 
	C412.104919,213.596909 423.223511,203.945160 436.510986,203.209625 
	C454.686981,202.203491 469.963593,221.493851 465.192352,239.981232 
	C463.989319,244.642792 460.962280,248.833603 458.522339,253.493713 
z"/>
</svg>