  <svg xmlns="http://www.w3.org/2000/svg" width="846" height="244" viewBox="0 0 846 244" version="1.1">
    <path
      d="M 159 123 L 159 187 173 187 L 187 187 187 162.816 C 187 131.123, 189.366 125.767, 202.704 127.270 C 212.776 128.405, 213.987 132.265, 213.994 163.250 L 214 187 228 187 L 242 187 242 157.538 C 242 123.339, 241.405 120.235, 233.351 112.407 C 222.838 102.190, 202.360 102.253, 190.134 112.541 L 187 115.178 187 87.089 L 187 59 173 59 L 159 59 159 123 M 263.893 61.373 C 248.569 72.013, 261.221 96.784, 278.329 89.636 C 293.390 83.343, 289.650 60.333, 273.391 59.259 C 268.359 58.926, 266.974 59.234, 263.893 61.373 M 303 123 L 303 187 317.500 187 L 332 187 332 123 L 332 59 317.500 59 L 303 59 303 123 M 58 127.500 L 58 187 73 187 L 88 187 88 167.500 L 88 148 99.250 147.983 C 131.992 147.932, 145.500 136.108, 145.500 107.500 C 145.500 75.459, 134.324 68, 86.318 68 L 58 68 58 127.500 M 559 94 L 559 106 554.500 106 L 550 106 550 118.500 L 550 131 554.500 131 L 559 131 559 147.318 C 559 177.903, 566.943 187.894, 592.707 189.712 L 601 190.297 601 178.856 L 601 167.415 596.738 166.275 C 594.393 165.648, 591.356 163.944, 589.988 162.488 L 587.500 159.841 587.216 120.920 L 586.933 82 572.966 82 L 559 82 559 94 M 88 108.125 L 88 123.251 96.250 122.810 C 122.325 121.416, 122.611 93, 96.550 93 L 88 93 88 108.125 M 374.286 105.451 C 354.837 111.529, 342.643 132.268, 345.994 153.566 C 350.679 183.340, 380.277 199.373, 402.968 184.429 C 409.262 180.284, 409 180.302, 409 184 L 409 187 423 187 L 437 187 437 146.500 L 437 106 423.060 106 L 409.121 106 408.810 109.550 L 408.500 113.100 405.053 110.548 C 396.899 104.511, 384.086 102.388, 374.286 105.451 M 502.217 105.179 C 496.132 106.117, 489.707 109.089, 485.750 112.797 L 483 115.374 483 110.687 L 483 106 469 106 L 455 106 455 146.500 L 455 187 469 187 L 483 187 483.022 162.750 C 483.051 130.622, 485.216 125.750, 498.782 127.279 C 508.765 128.404, 509.987 132.324, 509.994 163.250 L 510 187 524.053 187 L 538.107 187 537.803 156.250 L 537.500 125.500 534.697 119.792 C 529.086 108.365, 516.955 102.908, 502.217 105.179 M 736 105.829 C 704.144 117.678, 698.023 162.382, 725.473 182.719 C 738.757 192.561, 758.715 192.132, 769.747 181.768 L 772 179.651 772 183.326 L 772 187 786 187 L 800 187 800 146.500 L 800 106 786 106 L 772 106 772 109.500 C 772 113.685, 771.815 113.723, 767.492 110.426 C 759.340 104.208, 745.707 102.218, 736 105.829 M 258 146.500 L 258 187 272 187 L 286 187 286 146.500 L 286 106 272 106 L 258 106 258 146.500 M 600.848 107.961 C 586.771 115.618, 592.100 138, 608 138 C 619.830 138, 627.344 125.020, 621.703 114.329 C 617.863 107.049, 608.038 104.049, 600.848 107.961 M 635 146.500 L 635 187 649 187 L 663 187 663 146.500 L 663 106 649 106 L 635 106 635 146.500 M 678.500 107.357 C 663.281 114.398, 667.620 138, 684.134 138 C 699.925 138, 705.737 118.359, 692.802 108.702 C 689.495 106.233, 682.377 105.563, 678.500 107.357 M 386.469 129.062 C 382.247 130.290, 377.433 135.299, 375.428 140.549 C 367.296 161.842, 397.721 176.235, 407.120 155.541 C 414.006 140.382, 401.718 124.626, 386.469 129.062 M 748.684 129.449 C 728.285 136.724, 736.767 169.087, 758.127 165.479 C 778.190 162.089, 774.892 128.088, 754.500 128.088 C 753.400 128.088, 750.783 128.700, 748.684 129.449"
      stroke="none"
      fill="#0444ac"
      fill-rule="evenodd"
    />
    <path
      d="M 0 122.001 L 0 244.002 423.250 243.751 L 846.500 243.500 846.754 121.750 L 847.008 0 423.504 0 L 0 0 0 122.001 M 0.484 122.500 C 0.484 189.600, 0.604 216.903, 0.750 183.173 C 0.896 149.443, 0.896 94.543, 0.750 61.173 C 0.604 27.803, 0.484 55.400, 0.484 122.500 M 159 123 L 159 187 173 187 L 187 187 187 162.816 C 187 131.123, 189.366 125.767, 202.704 127.270 C 212.776 128.405, 213.987 132.265, 213.994 163.250 L 214 187 228 187 L 242 187 242 157.538 C 242 123.339, 241.405 120.235, 233.351 112.407 C 222.838 102.190, 202.360 102.253, 190.134 112.541 L 187 115.178 187 87.089 L 187 59 173 59 L 159 59 159 123 M 263.893 61.373 C 248.569 72.013, 261.221 96.784, 278.329 89.636 C 293.390 83.343, 289.650 60.333, 273.391 59.259 C 268.359 58.926, 266.974 59.234, 263.893 61.373 M 303 123 L 303 187 317.500 187 L 332 187 332 123 L 332 59 317.500 59 L 303 59 303 123 M 58 127.500 L 58 187 73 187 L 88 187 88 167.500 L 88 148 99.250 147.983 C 131.992 147.932, 145.500 136.108, 145.500 107.500 C 145.500 75.459, 134.324 68, 86.318 68 L 58 68 58 127.500 M 559 94 L 559 106 554.500 106 L 550 106 550 118.500 L 550 131 554.500 131 L 559 131 559 147.318 C 559 177.903, 566.943 187.894, 592.707 189.712 L 601 190.297 601 178.856 L 601 167.415 596.738 166.275 C 594.393 165.648, 591.356 163.944, 589.988 162.488 L 587.500 159.841 587.216 120.920 L 586.933 82 572.966 82 L 559 82 559 94 M 88 108.125 L 88 123.251 96.250 122.810 C 122.325 121.416, 122.611 93, 96.550 93 L 88 93 88 108.125 M 374.286 105.451 C 354.837 111.529, 342.643 132.268, 345.994 153.566 C 350.679 183.340, 380.277 199.373, 402.968 184.429 C 409.262 180.284, 409 180.302, 409 184 L 409 187 423 187 L 437 187 437 146.500 L 437 106 423.060 106 L 409.121 106 408.810 109.550 L 408.500 113.100 405.053 110.548 C 396.899 104.511, 384.086 102.388, 374.286 105.451 M 502.217 105.179 C 496.132 106.117, 489.707 109.089, 485.750 112.797 L 483 115.374 483 110.687 L 483 106 469 106 L 455 106 455 146.500 L 455 187 469 187 L 483 187 483.022 162.750 C 483.051 130.622, 485.216 125.750, 498.782 127.279 C 508.765 128.404, 509.987 132.324, 509.994 163.250 L 510 187 524.053 187 L 538.107 187 537.803 156.250 L 537.500 125.500 534.697 119.792 C 529.086 108.365, 516.955 102.908, 502.217 105.179 M 736 105.829 C 704.144 117.678, 698.023 162.382, 725.473 182.719 C 738.757 192.561, 758.715 192.132, 769.747 181.768 L 772 179.651 772 183.326 L 772 187 786 187 L 800 187 800 146.500 L 800 106 786 106 L 772 106 772 109.500 C 772 113.685, 771.815 113.723, 767.492 110.426 C 759.340 104.208, 745.707 102.218, 736 105.829 M 258 146.500 L 258 187 272 187 L 286 187 286 146.500 L 286 106 272 106 L 258 106 258 146.500 M 600.848 107.961 C 586.771 115.618, 592.100 138, 608 138 C 619.830 138, 627.344 125.020, 621.703 114.329 C 617.863 107.049, 608.038 104.049, 600.848 107.961 M 635 146.500 L 635 187 649 187 L 663 187 663 146.500 L 663 106 649 106 L 635 106 635 146.500 M 678.500 107.357 C 663.281 114.398, 667.620 138, 684.134 138 C 699.925 138, 705.737 118.359, 692.802 108.702 C 689.495 106.233, 682.377 105.563, 678.500 107.357 M 386.469 129.062 C 382.247 130.290, 377.433 135.299, 375.428 140.549 C 367.296 161.842, 397.721 176.235, 407.120 155.541 C 414.006 140.382, 401.718 124.626, 386.469 129.062 M 748.684 129.449 C 728.285 136.724, 736.767 169.087, 758.127 165.479 C 778.190 162.089, 774.892 128.088, 754.500 128.088 C 753.400 128.088, 750.783 128.700, 748.684 129.449"
      stroke="none"
      fill="#fafbfb"
      fill-rule="evenodd"
    />
  </svg>